<svg width="38" height="41" viewBox="0 0 38 41" fill="none" xmlns="http://www.w3.org/2000/svg">
<path d="M36.3454 1H22.6605C22.4979 1 22.3505 1.09773 22.2895 1.25204C22.2285 1.40636 22.2615 1.57867 22.3759 1.69441L25.9998 5.36191L17.9185 13.5405C17.7609 13.6999 17.7609 13.9571 17.9185 14.114C18.076 14.2735 18.3302 14.2735 18.4852 14.114L26.8511 5.64739C27.0087 5.48793 27.0087 5.23074 26.8511 5.07386L23.6288 1.81271H35.9439V14.276L32.7215 11.0149C32.564 10.8554 32.3098 10.8554 32.1548 11.0149L23.7914 19.479C23.6338 19.6384 23.6338 19.8956 23.7914 20.0525C23.8702 20.1322 23.9718 20.1708 24.076 20.1708C24.1802 20.1708 24.2819 20.1322 24.3606 20.0525L32.442 11.8739L36.0659 15.5414C36.1802 15.6571 36.353 15.6932 36.503 15.6289C36.6529 15.5671 36.752 15.418 36.752 15.2534V1.40636C36.752 1.1826 36.5716 1 36.3505 1H36.3454Z" fill="#40B139" stroke="#40B139" stroke-miterlimit="10"/>
<path d="M14.8335 20.1321V10.4747C14.8335 10.251 14.6531 10.0684 14.432 10.0684H4.88945C4.72681 10.0684 4.57942 10.1661 4.51842 10.3204C4.45743 10.4721 4.49047 10.647 4.60483 10.7628L7.04447 13.2318L1.11817 19.2294C0.96061 19.3889 0.96061 19.646 1.11817 19.8029C1.27573 19.9624 1.52986 19.9624 1.68488 19.8029L7.89581 13.5173C8.05337 13.3578 8.05337 13.1006 7.89581 12.9437L5.85769 10.8811H14.0305V19.1497L11.9924 17.087C11.8348 16.9276 11.5807 16.9276 11.4257 17.087L1.11817 27.516C0.96061 27.6755 0.96061 27.9326 1.11817 28.0895C1.19695 28.1693 1.2986 28.2078 1.4028 28.2078C1.50699 28.2078 1.60864 28.1693 1.68742 28.0895L11.7078 17.9486L14.1474 20.4176C14.2618 20.5333 14.4346 20.5693 14.5845 20.5051C14.7344 20.4433 14.8335 20.2942 14.8335 20.1296V20.1321Z" fill="#40B139" stroke="#40B139" stroke-miterlimit="10"/>
<path d="M11.601 25.8726L1.11817 36.4842C0.96061 36.6437 0.96061 36.9009 1.11817 37.0577C1.19695 37.1375 1.2986 37.1761 1.4028 37.1761C1.50699 37.1761 1.60864 37.1375 1.68742 37.0577L12.1703 26.4487C12.3278 26.2893 12.3278 26.0321 12.1703 25.8752C12.0127 25.7158 11.7586 25.7158 11.6036 25.8752L11.601 25.8726Z" fill="#40B139" stroke="#40B139" stroke-miterlimit="10"/>
<path d="M13.7079 6.28001C13.8095 6.28001 13.9137 6.24143 13.9925 6.1617L18.4067 1.69434C18.5643 1.53489 18.5643 1.2777 18.4067 1.12081C18.2492 0.961357 17.995 0.961357 17.84 1.12081L13.4258 5.58817C13.2682 5.74763 13.2682 6.00482 13.4258 6.1617C13.5046 6.24143 13.6062 6.28001 13.7104 6.28001H13.7079Z" fill="#40B139" stroke="#40B139" stroke-miterlimit="10"/>
<path d="M36.0637 19.749L31.6494 24.2163C31.4919 24.3758 31.4919 24.633 31.6494 24.7899C31.7282 24.8696 31.8299 24.9082 31.934 24.9082C32.0382 24.9082 32.1399 24.8696 32.2187 24.7899L36.6329 20.3225C36.7905 20.1631 36.7905 19.9059 36.6329 19.749C36.4753 19.5895 36.2212 19.5895 36.0662 19.749H36.0637Z" fill="#40B139" stroke="#40B139" stroke-miterlimit="10"/>
<path d="M21.7256 22.4443C17.6952 22.4443 14.6558 23.8229 14.6558 25.6489V36.5357C14.6558 38.3617 17.6952 39.7402 21.7256 39.7402C25.7561 39.7402 28.7955 38.3617 28.7955 36.5357V25.6489C28.7955 23.8229 25.7561 22.4443 21.7256 22.4443ZM21.7256 35.3269C18.0331 35.3269 15.4588 34.0667 15.4588 32.935V30.8647C16.6176 31.878 18.9328 32.539 21.7256 32.539C24.5185 32.539 26.8311 31.878 27.9925 30.8647V32.935C27.9925 34.0667 25.4182 35.3269 21.7256 35.3269ZM21.7256 31.7263C18.0331 31.7263 15.4588 30.466 15.4588 29.3344V27.2023C16.6176 28.2156 18.9328 28.8766 21.7256 28.8766C24.5185 28.8766 26.8311 28.2156 27.9925 27.2023V29.3344C27.9925 30.466 25.4182 31.7263 21.7256 31.7263ZM21.7256 38.9301C18.0331 38.9301 15.4588 37.6699 15.4588 36.5382V34.4679C16.6176 35.4812 18.9328 36.1422 21.7256 36.1422C24.5185 36.1422 26.8311 35.4812 27.9925 34.4679V36.5382C27.9925 37.6699 25.4182 38.9301 21.7256 38.9301ZM27.9925 25.672C27.9925 26.8037 25.4182 28.0639 21.7256 28.0639C18.0331 28.0639 15.4588 26.8037 15.4588 25.672V25.6489C15.4588 24.5173 18.0331 23.2571 21.7256 23.2571C25.4182 23.2571 27.9925 24.5173 27.9925 25.6489V25.672Z" fill="#40B139" stroke="#40B139" stroke-miterlimit="10"/>
</svg>
