<svg width="31" height="31" viewBox="0 0 31 31" fill="none" xmlns="http://www.w3.org/2000/svg">
<g clip-path="url(#clip0_120_8357)">
<path d="M26.6024 16.9644H24.2861C24.5222 17.6108 24.6512 18.3083 24.6512 19.0354V27.7897C24.6512 28.0928 24.5985 28.3838 24.5025 28.6544H28.3318C29.7623 28.6544 30.926 27.4906 30.926 26.0602V21.2879C30.926 18.9039 28.9865 16.9644 26.6024 16.9644Z" fill="#FFC708"/>
<path d="M7.24989 19.0354C7.24989 18.3083 7.37888 17.6108 7.61498 16.9644H5.29869C2.91466 16.9644 0.975098 18.9039 0.975098 21.2879V26.0603C0.975098 27.4907 2.1388 28.6544 3.56925 28.6544H7.39865C7.30266 28.3837 7.24989 28.0928 7.24989 27.7897V19.0354Z" fill="#FFC708"/>
<path d="M18.5982 14.7119H13.3028C10.9188 14.7119 8.97925 16.6515 8.97925 19.0355V27.7897C8.97925 28.2673 9.36639 28.6545 9.84397 28.6545H22.0571C22.5346 28.6545 22.9218 28.2673 22.9218 27.7897V19.0355C22.9218 16.6515 20.9822 14.7119 18.5982 14.7119Z" fill="#FFC708"/>
<path d="M15.9506 3.24756C13.0835 3.24756 10.751 5.58011 10.751 8.44728C10.751 10.392 11.8244 12.0905 13.4095 12.9823C14.1614 13.4052 15.0282 13.6469 15.9506 13.6469C16.873 13.6469 17.7398 13.4052 18.4917 12.9823C20.077 12.0905 21.1503 10.392 21.1503 8.44728C21.1503 5.58017 18.8177 3.24756 15.9506 3.24756Z" fill="#FFC708"/>
<path d="M6.82006 8.09424C4.67581 8.09424 2.9314 9.83865 2.9314 11.9829C2.9314 14.1272 4.67581 15.8716 6.82006 15.8716C7.36397 15.8716 7.88191 15.7589 8.35241 15.5564C9.16589 15.2062 9.83663 14.5862 10.2517 13.8096C10.543 13.2646 10.7087 12.6428 10.7087 11.9829C10.7087 9.83871 8.9643 8.09424 6.82006 8.09424Z" fill="#FFC708"/>
<path d="M25.081 8.09424C22.9368 8.09424 21.1924 9.83865 21.1924 11.9829C21.1924 12.6429 21.3581 13.2647 21.6494 13.8096C22.0645 14.5862 22.7352 15.2062 23.5487 15.5564C24.0192 15.7589 24.5371 15.8716 25.081 15.8716C27.2253 15.8716 28.9697 14.1272 28.9697 11.9829C28.9697 9.83865 27.2253 8.09424 25.081 8.09424Z" fill="#FFC708"/>
</g>
<defs>
<clipPath id="clip0_120_8357">
<rect width="29.951" height="29.951" fill="white" transform="translate(0.975098 0.975586)"/>
</clipPath>
</defs>
</svg>
