<svg width="35" height="36" viewBox="0 0 35 36" fill="none" xmlns="http://www.w3.org/2000/svg">
<path d="M5.28932 34.375V30C5.28932 24.6842 9.59857 20.375 14.9143 20.375H23.6643C28.9801 20.375 33.2893 24.6842 33.2893 30V34.375M12.2893 34.375V29.125M26.2893 34.375V29.125M5.95367 9.875L9.45367 13.375M5.95367 9.875L2 13.375M5.95367 9.875V17.75M26.2893 9C26.2893 12.866 23.1554 16 19.2893 16C15.4233 16 12.2893 12.866 12.2893 9C12.2893 5.134 15.4233 2 19.2893 2C23.1554 2 26.2893 5.134 26.2893 9Z" stroke="#40B139" stroke-width="3" stroke-linecap="round" stroke-linejoin="round"/>
</svg>
