<svg width="31" height="31" viewBox="0 0 31 31" fill="none" xmlns="http://www.w3.org/2000/svg">
<g clip-path="url(#clip0_120_8057)">
<path d="M18.8412 15.7943C22.9267 15.7943 26.25 12.4704 26.25 8.38494C26.25 4.29944 22.9267 0.975586 18.8412 0.975586C14.7557 0.975586 11.4319 4.29944 11.4319 8.38494C11.4319 12.4704 14.7557 15.7943 18.8412 15.7943ZM17.9638 4.02976V3.82853C17.9638 3.34358 18.3563 2.95106 18.8412 2.95106C19.3256 2.95106 19.7187 3.34358 19.7187 3.82853V4.03093C20.7629 4.25498 21.5485 5.1851 21.5485 6.29539C21.5485 6.77975 21.1554 7.17286 20.6711 7.17286C20.1861 7.17286 19.7936 6.77975 19.7936 6.29539C19.7936 5.98594 19.5415 5.73381 19.232 5.73381H18.4452C18.1358 5.73381 17.8836 5.98594 17.8836 6.29539C17.8836 6.47264 17.9684 6.64111 18.1112 6.74641L18.8412 7.28693L20.6149 8.59963C21.1975 9.03076 21.5485 9.72045 21.5532 10.4458V10.454C21.5573 11.0729 21.3204 11.6567 20.8852 12.0972C20.5622 12.4242 20.1586 12.6436 19.7187 12.736V12.9413C19.7187 13.4263 19.3256 13.8188 18.8412 13.8188C18.3563 13.8188 17.9638 13.4263 17.9638 12.9413V12.7389C17.5356 12.6477 17.1419 12.4371 16.8236 12.1224C16.3832 11.6877 16.1386 11.1074 16.1351 10.4885C16.1322 10.0042 16.5224 9.60872 17.0067 9.60579H17.0126C17.4946 9.60579 17.8871 9.99539 17.8901 10.478C17.8912 10.7808 18.1349 11.0361 18.4546 11.0361C18.9394 11.0331 18.7588 11.0342 19.2402 11.0314C19.5516 11.0289 19.8007 10.7762 19.7983 10.4657V10.4575C19.7971 10.282 19.7123 10.1147 19.5707 10.01L18.8412 9.47008L17.067 8.15738C16.4797 7.72216 16.1287 7.02603 16.1287 6.29539C16.1287 5.18276 16.9167 4.25206 17.9638 4.02976Z" fill="#061E5C"/>
<path d="M6.83634 20.0103C6.61141 19.6203 6.11178 19.4847 5.71944 19.711L1.59194 22.0936C1.20111 22.3198 1.06703 22.8197 1.29266 23.211L5.51118 30.5176C5.73698 30.9083 6.23656 31.0425 6.62808 30.8168L10.7556 28.4336C11.147 28.2079 11.2805 27.7081 11.0549 27.3167L6.83634 20.0103Z" fill="#061E5C"/>
<path d="M30.4866 18.5518C30.0894 18.0002 29.3207 17.8756 28.7696 18.2728C27.0978 19.4772 23.8874 21.7903 23.6323 21.9745C23.5148 22.0746 23.3913 22.1652 23.2626 22.2454C22.7578 22.563 22.1722 22.7327 21.5609 22.7327H17.3579C16.8735 22.7327 16.4804 22.3401 16.4804 21.8552C16.4804 21.3697 16.8741 20.9777 17.3579 20.9777H21.8528C22.5133 20.9777 23.0421 20.4278 23.0146 19.7662C22.9889 19.1385 22.453 18.6518 21.8248 18.6518H18.4032C18.1716 18.4067 17.9177 18.1821 17.6457 17.9815C16.7103 17.2918 15.5544 16.884 14.3031 16.884C12.0784 16.884 9.86485 18.2856 8.94702 20.1564L12.5365 26.373H19.2696C20.5916 26.373 21.8938 26.0349 23.0398 25.3756C23.437 25.1475 23.8622 24.8731 24.3232 24.542C26.2548 23.1544 30.204 20.2716 30.2069 20.2699C30.7592 19.8733 30.8843 19.1034 30.4866 18.5518Z" fill="#061E5C"/>
</g>
<defs>
<clipPath id="clip0_120_8057">
<rect width="29.951" height="29.951" fill="white" transform="translate(0.975586 0.975586)"/>
</clipPath>
</defs>
</svg>
